<svg width="26" height="26" viewBox="0 0 26 26" fill="none" xmlns="http://www.w3.org/2000/svg">
<path d="M12.9993 2.16699C7.02585 2.16699 2.16602 7.02683 2.16602 13.0003C2.16602 18.9738 7.02585 23.8337 12.9993 23.8337C18.9728 23.8337 23.8327 18.9738 23.8327 13.0003C23.8327 7.02683 18.9728 2.16699 12.9993 2.16699ZM12.9993 21.667C8.22077 21.667 4.33268 17.7789 4.33268 13.0003C4.33268 8.22174 8.22077 4.33366 12.9993 4.33366C17.7779 4.33366 21.666 8.22174 21.666 13.0003C21.666 17.7789 17.7779 21.667 12.9993 21.667Z" fill="#535A66"/>
<path d="M14.0827 7.58301H11.916V13.4482L15.4834 17.0156L17.0153 15.4838L14.0827 12.5512V7.58301Z" fill="#535A66"/>
</svg>
