<svg width="27" height="25" viewBox="0 0 27 25" fill="none" xmlns="http://www.w3.org/2000/svg">
<path d="M25.5404 0.720703H1.50195V23.7976H25.5404V0.720703Z" fill="white" fill-opacity="0.01"/>
<path d="M25.5404 0.720703H1.50195V23.7976H25.5404V0.720703Z" fill="white" fill-opacity="0.01"/>
<path d="M22.4254 10.6285C22.552 9.81326 22.5105 8.9786 22.3009 8.17605C22.024 7.11586 21.4537 6.11182 20.59 5.28273C19.7264 4.45365 18.6805 3.90619 17.5762 3.64035C16.7402 3.43911 15.8707 3.39926 15.0215 3.52079" stroke="#535A66" stroke-width="1.84615" stroke-linecap="round" stroke-linejoin="round"/>
<path d="M18.6242 10.2419C18.7598 9.36853 18.4775 8.4469 17.7771 7.77459C17.0768 7.10228 16.1168 6.83117 15.207 6.96137" stroke="#535A66" stroke-width="1.84615" stroke-linecap="round" stroke-linejoin="round"/>
<path d="M8.70233 4.94922C9.06616 4.94922 9.4014 5.13868 9.57803 5.44406L10.8032 7.56271C10.9636 7.84012 10.9712 8.17565 10.8233 8.45945L9.64303 10.7256C9.64303 10.7256 9.98508 12.4138 11.4166 13.7881C12.8481 15.1623 14.6007 15.485 14.6007 15.485L16.9609 14.3521C17.2568 14.2101 17.6065 14.2174 17.8956 14.3717L20.1088 15.553C20.4266 15.7226 20.6237 16.0443 20.6237 16.3933V18.8325C20.6237 20.0747 19.4218 20.9718 18.1958 20.5747C15.6778 19.7591 11.7692 18.2061 9.29187 15.8278C6.81446 13.4495 5.19677 9.69723 4.34716 7.27997C3.93348 6.103 4.86802 4.94922 6.16191 4.94922H8.70233Z" stroke="#535A66" stroke-width="1.84615" stroke-linejoin="round"/>
</svg>
